# Blender v2.78 (sub 0) OBJ File: 'bk_trees-lowpoly.blend'
# www.blender.org
mtllib trees-lowpoly.mtl
g tree.008_Circle.011
v 68.199936 0.000000 -5.000000
v 63.869808 0.000000 2.500000
v 72.530060 0.000000 2.500000
v 68.199936 24.914253 -2.134791
v 66.351151 24.914253 1.067396
v 70.048721 24.914253 1.067395
v 60.061317 31.136274 -3.358419
v 57.267525 16.603796 2.450342
v 62.823048 30.817282 6.022537
v 68.188675 42.122063 0.410483
v 69.374428 31.297178 -9.752428
v 62.723129 16.900385 -9.391897
v 66.850586 16.384304 11.295890
v 72.065628 30.781080 7.113571
v 76.944206 31.077671 -1.371202
v 75.678017 16.864201 -7.865417
v 68.183250 9.219082 -0.175603
v 78.228828 16.545095 4.920330
vn 0.0000 -1.0000 0.0000
vn 0.0000 1.0000 0.0000
vn 0.8646 0.0574 -0.4992
vn 0.0000 0.0574 0.9984
vn -0.8646 0.0574 -0.4992
vn -0.9160 0.2878 0.2795
vn -0.9083 0.0074 -0.4183
vn -0.8169 0.5158 0.2580
vn -0.4692 0.5766 -0.6689
vn -0.5529 0.2354 -0.7993
vn -0.5832 -0.7597 -0.2877
vn -0.6751 0.0796 0.7334
vn -0.1010 0.4804 0.8712
vn 0.6148 0.5746 -0.5403
vn 0.1164 -0.0786 -0.9901
vn -0.4269 -0.7884 0.4429
vn -0.1101 0.3138 0.9431
vn 0.7365 0.5126 0.4414
vn 0.7249 0.2318 -0.6487
vn 0.0762 -0.7433 -0.6646
vn 0.3079 -0.7905 0.5295
vn 0.4866 0.0766 0.8703
vn 0.8271 0.2833 0.4855
vn 0.9807 0.0020 -0.1956
vn 0.6299 -0.7631 -0.1447
g tree.008_Circle.011_bark
usemtl bark
s off
f 2//1 1//1 3//1
f 5//2 6//2 4//2
f 3//3 1//3 4//3 6//3
f 2//4 3//4 6//4 5//4
f 1//5 2//5 5//5 4//5
g tree.008_Circle.011_laeves
usemtl laeves
f 7//6 8//6 9//6
f 8//7 7//7 12//7
f 7//8 9//8 10//8
f 7//9 10//9 11//9
f 7//10 11//10 12//10
f 8//11 12//11 17//11
f 9//12 8//12 13//12
f 10//13 9//13 14//13
f 11//14 10//14 15//14
f 12//15 11//15 16//15
f 8//16 17//16 13//16
f 9//17 13//17 14//17
f 10//18 14//18 15//18
f 11//19 15//19 16//19
f 12//20 16//20 17//20
f 13//21 17//21 18//21
f 14//22 13//22 18//22
f 15//23 14//23 18//23
f 16//24 15//24 18//24
f 17//25 16//25 18//25
g tree.007_Circle.010
v 146.911942 0.000000 -2.422503
v 141.545807 0.000000 -0.675633
v 145.741714 0.000000 3.098136
v 146.840866 24.914253 -2.343477
v 141.649780 24.914253 -0.653593
v 145.708817 24.914253 2.997071
v 145.471497 18.498287 -4.532997
v 151.911667 21.563583 2.020910
v 141.206543 22.066736 8.470659
v 134.083694 25.720568 0.412666
v 140.954941 26.590025 -11.017216
v 151.631851 23.788069 -10.023156
v 150.836365 27.013760 11.017216
v 138.911850 30.349730 10.023156
v 137.995209 37.783882 -2.020910
v 149.362961 36.461082 -8.470659
v 157.289032 28.152922 -0.412666
v 145.794708 42.391491 4.532997
vn 0.0000 -1.0000 0.0000
vn 0.0000 1.0000 0.0000
vn 0.9783 0.0021 0.2074
vn -0.6687 0.0021 0.7435
vn -0.3095 0.0021 -0.9509
vn 0.1390 -0.9424 0.3042
vn 0.5547 -0.8158 -0.1636
vn -0.5137 -0.8554 0.0662
vn -0.6090 -0.6744 -0.4174
vn -0.1026 -0.6563 -0.7475
vn 0.7416 -0.6564 -0.1385
vn 0.2765 -0.8069 0.5219
vn -0.7773 -0.3172 0.5433
vn -0.8496 0.1751 -0.4974
vn 0.1290 0.1433 -0.9812
vn 0.7786 -0.4911 0.3906
vn -0.1421 -0.2202 0.9650
vn -0.8944 0.3469 0.2822
vn -0.3756 0.5182 -0.7684
vn 0.7971 0.2120 -0.5655
vn 0.7586 0.4481 0.4729
vn 0.0349 0.3980 0.9167
vn -0.6954 0.5867 0.4151
vn -0.1490 0.8836 -0.4439
vn 0.7607 0.6435 -0.0847
g tree.007_Circle.010_bark
usemtl bark
s off
f 20//26 19//26 21//26
f 23//27 24//27 22//27
f 21//28 19//28 22//28 24//28
f 20//29 21//29 24//29 23//29
f 19//30 20//30 23//30 22//30
g tree.007_Circle.010_laeves
usemtl laeves
f 25//31 26//31 27//31
f 26//32 25//32 30//32
f 25//33 27//33 28//33
f 25//34 28//34 29//34
f 25//35 29//35 30//35
f 26//36 30//36 35//36
f 27//37 26//37 31//37
f 28//38 27//38 32//38
f 29//39 28//39 33//39
f 30//40 29//40 34//40
f 26//41 35//41 31//41
f 27//42 31//42 32//42
f 28//43 32//43 33//43
f 29//44 33//44 34//44
f 30//45 34//45 35//45
f 31//46 35//46 36//46
f 32//47 31//47 36//47
f 33//48 32//48 36//48
f 34//49 33//49 36//49
f 35//50 34//50 36//50
g tree.006_Circle.007
v 114.429863 26.044079 1.937670
v 119.691963 22.783134 -2.018289
v 121.482254 27.748222 3.092041
v 116.392052 33.044788 2.993025
v 111.455856 31.353008 -2.178585
v 113.495354 25.010996 -5.275687
v 124.906364 27.768471 -3.407854
v 122.866867 34.110485 -0.310753
v 116.670265 36.338345 -3.568150
v 114.879967 31.373257 -8.678480
v 119.970177 26.076691 -8.579465
v 121.932365 33.077400 -7.524109
v 100.189514 24.710228 -2.575747
v 109.038849 21.142086 -5.989902
v 106.677872 20.283644 3.827782
v 101.753189 28.691950 6.611262
v 101.070648 34.746929 -1.486343
v 105.573425 30.080814 -9.274185
v 116.071777 22.918539 1.087072
v 111.569000 27.584652 8.874913
v 108.103577 36.523380 5.590631
v 110.464554 37.381824 -4.227053
v 115.389229 28.973518 -7.010533
v 116.952911 32.955238 2.176476
v 114.944168 11.112065 1.067396
v 106.440834 26.644239 -1.269023
v 109.687958 28.390259 -1.551125
v 108.048027 27.036190 -4.575878
v 118.641739 11.112065 1.067395
v 122.110268 20.119961 -1.370461
v 120.397125 20.793930 1.836235
v 123.652634 19.040913 1.812111
v 116.792953 0.000000 -5.000000
v 112.462830 0.000000 2.500000
v 121.123077 0.000000 2.500000
v 116.792953 11.112065 -2.134791
v 121.047806 20.078148 -3.861368
v 125.945679 17.428263 1.637245
v 118.330582 18.246380 3.245460
v 115.772079 24.692741 -0.380138
v 121.806099 27.858603 -4.229080
v 128.093658 23.368893 -2.982235
v 123.696999 20.405113 8.516868
v 117.409447 24.894825 7.270023
v 119.557419 30.835455 2.650542
v 127.172516 30.017338 1.042328
v 129.731018 23.570976 4.667926
v 124.455292 28.185568 8.149156
vn -0.4783 0.8686 -0.1295
vn 0.4734 0.8782 0.0683
vn 0.0000 -1.0000 0.0000
vn 0.7675 -0.4253 -0.4796
vn 0.8589 0.1279 -0.4959
vn -0.7610 -0.4830 -0.4331
vn 0.7866 0.3409 -0.5148
vn 0.0023 0.1505 0.9886
vn -0.0158 -0.0763 0.9970
vn -0.7495 0.4702 -0.4660
vn 0.0000 0.1279 0.9918
vn -0.8589 0.1279 -0.4959
vn 0.0637 -0.7268 0.6839
vn -0.4158 -0.8912 0.1815
vn -0.1344 -0.1108 0.9847
vn -0.7364 0.1057 0.6683
vn -0.9103 -0.3767 0.1719
vn -0.0832 -0.8892 -0.4499
vn 0.6926 -0.6233 0.3629
vn 0.3721 0.3735 0.8497
vn -0.6019 0.7237 0.3377
vn -0.8832 -0.0567 -0.4655
vn 0.6019 -0.7237 -0.3377
vn 0.8832 0.0567 0.4655
vn 0.0832 0.8892 0.4499
vn -0.6926 0.6233 -0.3629
vn -0.3721 -0.3735 -0.8497
vn 0.7364 -0.1056 -0.6683
vn 0.9103 0.3767 -0.1719
vn 0.4158 0.8912 -0.1815
vn -0.0637 0.7268 -0.6839
vn 0.1344 0.1108 -0.9847
vn -0.4268 -0.8862 -0.1801
vn -0.4749 -0.4598 -0.7504
vn -0.7439 -0.5576 0.3683
vn -0.9880 0.0719 0.1370
vn -0.8217 0.1323 -0.5544
vn 0.1866 -0.2743 -0.9434
vn 0.2644 -0.9642 -0.0207
vn -0.2487 -0.4325 0.8667
vn -0.6435 0.5860 0.4924
vn -0.3745 0.6838 -0.6262
vn 0.6435 -0.5860 -0.4924
vn 0.3745 -0.6838 0.6262
vn -0.1866 0.2743 0.9434
vn -0.2644 0.9642 0.0207
vn 0.2487 0.4325 -0.8667
vn 0.9880 -0.0719 -0.1370
vn 0.8217 -0.1323 0.5544
vn 0.4749 0.4598 0.7504
vn 0.4268 0.8862 0.1801
vn 0.7439 0.5576 -0.3683
vn -0.1652 -0.9380 -0.3049
vn 0.3851 -0.6493 -0.6559
vn -0.7385 -0.5285 -0.4186
vn -0.5426 0.0132 -0.8399
vn 0.1518 -0.0614 -0.9865
vn 0.8744 -0.4524 -0.1752
vn -0.0159 -0.9195 0.3927
vn -0.9436 -0.2571 0.2087
vn -0.6266 0.6195 -0.4729
vn 0.4970 0.4987 -0.7101
vn 0.6266 -0.6195 0.4729
vn -0.4969 -0.4987 0.7101
vn -0.8744 0.4524 0.1752
vn 0.0159 0.9195 -0.3927
vn 0.9436 0.2571 -0.2087
vn 0.5426 -0.0132 0.8399
vn -0.1518 0.0614 0.9865
vn -0.3851 0.6493 0.6559
vn 0.1652 0.9380 0.3049
vn 0.7385 0.5285 0.4186
g tree.006_Circle.007_bark
usemtl bark
s off
f 63//51 64//51 62//51
f 67//52 68//52 66//52
f 70//53 69//53 71//53
f 65//54 72//54 66//54 68//54
f 71//55 69//55 72//55 65//55
f 72//56 61//56 62//56 64//56
f 65//57 72//57 64//57 63//57
f 61//58 65//58 63//58 62//58
f 61//59 65//59 68//59 67//59
f 72//60 61//60 67//60 66//60
f 70//61 71//61 65//61 61//61
f 69//62 70//62 61//62 72//62
g tree.006_Circle.007_laeves
usemtl laeves
f 37//63 38//63 39//63
f 38//64 37//64 42//64
f 37//65 39//65 40//65
f 37//66 40//66 41//66
f 37//67 41//67 42//67
f 38//68 42//68 47//68
f 39//69 38//69 43//69
f 40//70 39//70 44//70
f 41//71 40//71 45//71
f 42//72 41//72 46//72
f 38//73 47//73 43//73
f 39//74 43//74 44//74
f 40//75 44//75 45//75
f 41//76 45//76 46//76
f 42//77 46//77 47//77
f 43//78 47//78 48//78
f 44//79 43//79 48//79
f 45//80 44//80 48//80
f 46//81 45//81 48//81
f 47//82 46//82 48//82
f 49//83 50//83 51//83
f 50//84 49//84 54//84
f 49//85 51//85 52//85
f 49//86 52//86 53//86
f 49//87 53//87 54//87
f 50//88 54//88 59//88
f 51//89 50//89 55//89
f 52//90 51//90 56//90
f 53//91 52//91 57//91
f 54//92 53//92 58//92
f 50//93 59//93 55//93
f 51//94 55//94 56//94
f 52//95 56//95 57//95
f 53//96 57//96 58//96
f 54//97 58//97 59//97
f 55//98 59//98 60//98
f 56//99 55//99 60//99
f 57//100 56//100 60//100
f 58//101 57//101 60//101
f 59//102 58//102 60//102
f 73//103 74//103 75//103
f 74//104 73//104 78//104
f 73//105 75//105 76//105
f 73//106 76//106 77//106
f 73//107 77//107 78//107
f 74//108 78//108 83//108
f 75//109 74//109 79//109
f 76//110 75//110 80//110
f 77//111 76//111 81//111
f 78//112 77//112 82//112
f 74//113 83//113 79//113
f 75//114 79//114 80//114
f 76//115 80//115 81//115
f 77//116 81//116 82//116
f 78//117 82//117 83//117
f 79//118 83//118 84//118
f 80//119 79//119 84//119
f 81//120 80//120 84//120
f 82//121 81//121 84//121
f 83//122 82//122 84//122
g tree.004_Circle.004
v 82.603821 19.869091 3.169966
v 79.768501 19.392126 -0.794047
v 84.627922 18.935013 -1.190130
v 86.704536 22.184803 1.827607
v 83.128433 24.650366 4.088724
v 78.841774 22.924377 2.468436
v 82.116898 21.413048 -4.586341
v 86.403549 23.139036 -2.966054
v 85.476822 26.671288 0.296430
v 80.617401 27.128401 0.692513
v 78.540787 23.878611 -2.325224
v 82.641502 26.194323 -3.667583
v 91.230606 11.676319 -2.059332
v 90.575523 13.722218 2.509158
v 91.920441 15.999062 -0.278555
v 81.738022 20.851353 1.420153
v 82.233070 21.070719 2.968770
v 82.807297 22.042837 1.778533
v 91.050636 0.000000 4.916901
v 96.670486 0.000000 -1.672277
v 88.154167 0.000000 -3.244623
v 91.570839 24.914253 2.099311
v 93.970276 24.914253 -0.713992
v 90.334167 24.914253 -1.385319
v 94.207672 27.678192 7.323483
v 92.305862 19.842863 5.287771
v 99.180214 23.382406 2.227077
v 97.464439 31.358044 0.614786
v 89.529587 32.747559 2.679102
v 86.341492 25.630798 5.567136
v 94.387268 18.680164 -2.679102
v 97.575363 25.796925 -5.567136
v 91.610992 31.584858 -5.287771
v 84.736641 28.045315 -2.227077
v 86.452415 20.069677 -0.614786
v 89.709183 23.749531 -7.323483
vn -0.7579 0.6343 0.1524
vn 0.0146 0.3576 -0.9338
vn 0.5061 0.5321 0.6788
vn -0.6258 -0.7366 0.2564
vn 0.0000 -1.0000 0.0000
vn 0.0000 1.0000 0.0000
vn -0.9409 0.0574 0.3339
vn 0.1813 0.0574 -0.9818
vn 0.7596 0.0574 0.6479
vn -0.0782 -0.9816 0.1740
vn -0.5993 -0.6223 0.5035
vn 0.5466 -0.7301 0.4101
vn 0.4115 -0.2153 0.8856
vn -0.2967 -0.1487 0.9433
vn -0.9652 -0.2612 0.0086
vn -0.1220 -0.8426 -0.5246
vn 0.8888 -0.4356 -0.1425
vn 0.6703 0.3973 0.6268
vn -0.4756 0.5051 0.7202
vn -0.6703 -0.3973 -0.6268
vn 0.4756 -0.5051 -0.7202
vn 0.9652 0.2612 -0.0086
vn 0.1220 0.8426 0.5246
vn -0.8888 0.4356 0.1425
vn -0.4115 0.2153 -0.8856
vn 0.2967 0.1487 -0.9433
vn 0.5993 0.6223 -0.5035
vn 0.0782 0.9816 -0.1740
vn -0.5466 0.7301 -0.4101
vn 0.5208 -0.3309 0.7870
vn -0.1602 -0.2116 0.9641
vn 0.7944 0.2799 0.5391
vn 0.2825 0.7766 0.5631
vn -0.3074 0.4728 0.8258
vn -0.5715 -0.6151 0.5431
vn 0.5303 -0.8081 0.2565
vn 0.9730 0.1801 -0.1445
vn 0.1448 0.9838 -0.1058
vn -0.8098 0.4923 0.3192
vn -0.1448 -0.9838 0.1058
vn 0.8098 -0.4923 -0.3192
vn 0.5715 0.6151 -0.5431
vn -0.5303 0.8081 -0.2565
vn -0.9730 -0.1801 0.1445
vn -0.2825 -0.7766 -0.5631
vn 0.3074 -0.4728 -0.8258
vn 0.1602 0.2116 -0.9641
vn -0.5208 0.3309 -0.7870
vn -0.7944 -0.2799 -0.5391
g tree.004_Circle.004_bark
usemtl bark
s off
f 101//123 102//123 100//123
f 99//124 97//124 100//124 102//124
f 98//125 99//125 102//125 101//125
f 97//126 98//126 101//126 100//126
f 104//127 103//127 105//127
f 107//128 108//128 106//128
f 105//129 103//129 106//129 108//129
f 104//130 105//130 108//130 107//130
f 103//131 104//131 107//131 106//131
g tree.004_Circle.004_laeves
usemtl laeves
f 85//132 86//132 87//132
f 86//133 85//133 90//133
f 85//134 87//134 88//134
f 85//135 88//135 89//135
f 85//136 89//136 90//136
f 86//137 90//137 95//137
f 87//138 86//138 91//138
f 88//139 87//139 92//139
f 89//140 88//140 93//140
f 90//141 89//141 94//141
f 86//142 95//142 91//142
f 87//143 91//143 92//143
f 88//144 92//144 93//144
f 89//145 93//145 94//145
f 90//146 94//146 95//146
f 91//147 95//147 96//147
f 92//148 91//148 96//148
f 93//149 92//149 96//149
f 94//150 93//150 96//150
f 95//151 94//151 96//151
f 109//152 110//152 111//152
f 110//153 109//153 114//153
f 109//154 111//154 112//154
f 109//155 112//155 113//155
f 109//156 113//156 114//156
f 110//157 114//157 119//157
f 111//158 110//158 115//158
f 112//159 111//159 116//159
f 113//160 112//160 117//160
f 114//161 113//161 118//161
f 110//162 119//162 115//162
f 111//163 115//163 116//163
f 112//164 116//164 117//164
f 113//165 117//165 118//165
f 114//166 118//166 119//166
f 115//167 119//167 120//167
f 116//168 115//168 120//168
f 117//169 116//169 120//169
f 118//170 117//170 120//170
f 119//171 118//171 120//171
g tree.003_Circle.003
v 45.634098 0.000000 -8.474048
v 39.921581 0.000000 5.175925
v 54.599060 0.000000 3.298122
v 46.255360 13.501773 -3.618064
v 43.816353 13.501773 2.209904
v 50.083027 13.501773 1.408160
v 42.942066 10.422077 -3.556249
v 51.989151 10.625679 1.585454
v 43.084808 12.479558 6.645443
v 36.867851 17.930706 0.323747
v 41.930126 19.445726 -8.643281
v 51.275520 14.930972 -7.863417
v 51.506367 18.260153 8.643281
v 42.160973 22.774908 7.863417
v 41.447342 27.080200 -1.585454
v 50.351685 25.226322 -6.645443
v 56.568642 19.775173 -0.323747
v 50.494427 27.283802 3.556249
vn 0.0000 -1.0000 0.0000
vn 0.0000 1.0000 0.0000
vn 0.7828 0.1784 -0.5961
vn 0.1249 0.1784 0.9760
vn -0.9077 0.1784 -0.3799
vn -0.0906 -0.9760 0.1981
vn 0.2565 -0.8721 -0.4167
vn -0.7314 -0.6664 0.1446
vn -0.7803 -0.3712 -0.5033
vn -0.1698 -0.4983 -0.8502
vn 0.8339 -0.4758 -0.2798
vn 0.2723 -0.6438 0.7151
vn -0.7645 -0.1430 0.6286
vn -0.8437 0.3347 -0.4197
vn 0.1442 0.1290 -0.9811
vn 0.8437 -0.3347 0.4197
vn -0.1442 -0.1290 0.9811
vn -0.8339 0.4758 0.2798
vn -0.2723 0.6438 -0.7151
vn 0.7645 0.1430 -0.6286
vn 0.7803 0.3712 0.5033
vn 0.1698 0.4983 0.8502
vn -0.2565 0.8721 0.4167
vn 0.0906 0.9760 -0.1981
vn 0.7314 0.6664 -0.1446
g tree.003_Circle.003_bark
usemtl bark
s off
f 122//172 121//172 123//172
f 125//173 126//173 124//173
f 123//174 121//174 124//174 126//174
f 122//175 123//175 126//175 125//175
f 121//176 122//176 125//176 124//176
g tree.003_Circle.003_laeves
usemtl laeves
f 127//177 128//177 129//177
f 128//178 127//178 132//178
f 127//179 129//179 130//179
f 127//180 130//180 131//180
f 127//181 131//181 132//181
f 128//182 132//182 137//182
f 129//183 128//183 133//183
f 130//184 129//184 134//184
f 131//185 130//185 135//185
f 132//186 131//186 136//186
f 128//187 137//187 133//187
f 129//188 133//188 134//188
f 130//189 134//189 135//189
f 131//190 135//190 136//190
f 132//191 136//191 137//191
f 133//192 137//192 138//192
f 134//193 133//193 138//193
f 135//194 134//194 138//194
f 136//195 135//195 138//195
f 137//196 136//196 138//196
g tree.001_Circle.001
v 21.897964 12.259352 -1.246220
v 20.660847 16.543888 -1.328284
v 21.308941 14.484115 2.574504
v 33.876991 17.059000 -0.702339
v 33.348793 18.888319 -0.737377
v 33.625500 18.008881 0.928951
v 23.617668 20.610878 -6.493627
v 32.307049 18.021486 -3.164447
v 24.321335 15.234669 1.499794
v 17.948248 22.481609 1.099345
v 21.995392 29.747246 -3.812465
v 30.869549 26.990677 -6.447577
v 32.007988 18.291838 6.486132
v 23.133835 21.048409 9.121243
v 21.696335 30.017595 5.838114
v 29.682049 32.804417 1.173873
v 36.055134 25.557476 1.574321
v 30.385714 27.428205 9.167294
v 25.763792 0.000000 -2.231251
v 17.119659 0.000000 -2.759441
v 20.984301 0.000000 4.990692
v 23.199694 24.914253 -0.952651
v 19.509010 24.914253 -1.178166
v 21.159050 24.914253 2.130817
v 19.056293 17.167646 -4.435801
v 20.988024 17.292051 3.013082
v 13.591152 17.792284 0.947029
v 13.192136 22.047102 -5.453817
v 20.342537 24.176434 -7.343594
v 25.160574 21.237640 -2.110762
v 16.317711 22.248400 6.598783
v 11.499674 25.187191 1.365951
v 15.672224 29.132782 -3.757893
v 23.069096 28.632547 -1.691840
v 23.468113 24.377729 4.709006
v 17.603954 29.257187 3.690989
vn 0.9607 0.2771 -0.0133
vn 0.2988 -0.8040 0.5142
vn -0.1808 0.8571 0.4824
vn 0.0475 -0.0054 -0.9989
vn 0.0000 -1.0000 0.0000
vn 0.0000 1.0000 0.0000
vn 0.8325 0.0574 0.5510
vn -0.8934 0.0574 0.4455
vn 0.0609 0.0574 -0.9965
vn -0.0347 -0.8307 -0.5557
vn 0.2644 -0.2939 -0.9186
vn -0.6903 -0.6270 -0.3610
vn -0.7965 0.0357 -0.6035
vn -0.2065 0.2416 -0.9482
vn 0.8323 -0.0680 -0.5502
vn 0.3485 -0.9366 0.0370
vn -0.7124 -0.6071 0.3521
vn -0.8843 0.4652 -0.0404
vn 0.0704 0.7984 -0.5980
vn 0.8843 -0.4652 0.0404
vn -0.0704 -0.7984 0.5980
vn -0.8323 0.0680 0.5502
vn -0.3485 0.9366 -0.0370
vn 0.7124 0.6071 -0.3521
vn 0.7965 -0.0357 0.6035
vn 0.2065 -0.2416 0.9482
vn -0.2644 0.2939 0.9186
vn 0.0347 0.8307 0.5557
vn 0.6903 0.6270 0.3610
vn -0.0776 -0.9963 0.0368
vn 0.5854 -0.7989 -0.1385
vn -0.5244 -0.7238 -0.4484
vn -0.1375 -0.3579 -0.9236
vn 0.5484 -0.4043 -0.7320
vn 0.8382 -0.3857 0.3856
vn -0.2346 -0.7051 0.6691
vn -0.9575 -0.2642 -0.1160
vn -0.3314 0.3278 -0.8847
vn 0.7783 0.2527 -0.5747
vn 0.3314 -0.3278 0.8847
vn -0.7783 -0.2527 0.5747
vn -0.8382 0.3857 -0.3856
vn 0.2346 0.7051 -0.6691
vn 0.9575 0.2642 0.1160
vn 0.1375 0.3579 0.9236
vn -0.5484 0.4043 0.7320
vn -0.5854 0.7989 0.1385
vn 0.0776 0.9963 -0.0368
vn 0.5244 0.7238 0.4484
g tree.001_Circle.001_bark
usemtl bark
s off
f 143//197 144//197 142//197
f 141//198 139//198 142//198 144//198
f 140//199 141//199 144//199 143//199
f 139//200 140//200 143//200 142//200
f 158//201 157//201 159//201
f 161//202 162//202 160//202
f 159//203 157//203 160//203 162//203
f 158//204 159//204 162//204 161//204
f 157//205 158//205 161//205 160//205
g tree.001_Circle.001_laeves
usemtl laeves
f 145//206 146//206 147//206
f 146//207 145//207 150//207
f 145//208 147//208 148//208
f 145//209 148//209 149//209
f 145//210 149//210 150//210
f 146//211 150//211 155//211
f 147//212 146//212 151//212
f 148//213 147//213 152//213
f 149//214 148//214 153//214
f 150//215 149//215 154//215
f 146//216 155//216 151//216
f 147//217 151//217 152//217
f 148//218 152//218 153//218
f 149//219 153//219 154//219
f 150//220 154//220 155//220
f 151//221 155//221 156//221
f 152//222 151//222 156//222
f 153//223 152//223 156//223
f 154//224 153//224 156//224
f 155//225 154//225 156//225
f 163//226 164//226 165//226
f 164//227 163//227 168//227
f 163//228 165//228 166//228
f 163//229 166//229 167//229
f 163//230 167//230 168//230
f 164//231 168//231 173//231
f 165//232 164//232 169//232
f 166//233 165//233 170//233
f 167//234 166//234 171//234
f 168//235 167//235 172//235
f 164//236 173//236 169//236
f 165//237 169//237 170//237
f 166//238 170//238 171//238
f 167//239 171//239 172//239
f 168//240 172//240 173//240
f 169//241 173//241 174//241
f 170//242 169//242 174//242
f 171//243 170//243 174//243
f 172//244 171//244 174//244
f 173//245 172//245 174//245
g tree.000_Circle.000
v -2.839356 17.918266 -2.673988
v 3.963257 18.071358 1.192123
v -2.732026 19.465311 4.996791
v -7.406635 23.564098 0.243429
v -3.600247 24.703259 -6.498988
v 3.426671 21.308559 -5.912600
v 3.600247 23.811813 6.498988
v -3.426671 27.206512 5.912600
v -3.963257 30.443714 -1.192123
v 2.732026 29.049759 -4.996791
v 7.406635 24.950974 -0.243429
v 2.839356 30.596806 2.673988
v 0.000000 0.000000 -5.000000
v -4.330127 0.000000 2.500000
v 4.330127 0.000000 2.500000
v 0.000000 24.914253 -2.134791
v -1.848783 24.914253 1.067396
v 1.848784 24.914253 1.067395
vn 0.0000 -1.0000 0.0000
vn 0.0000 1.0000 -0.0000
vn 0.8646 0.0574 -0.4992
vn 0.0000 0.0574 0.9984
vn -0.8646 0.0574 -0.4992
vn -0.0906 -0.9760 0.1981
vn 0.2565 -0.8721 -0.4167
vn -0.7314 -0.6664 0.1446
vn -0.7803 -0.3712 -0.5033
vn -0.1698 -0.4983 -0.8502
vn 0.8339 -0.4758 -0.2798
vn 0.2723 -0.6438 0.7151
vn -0.7645 -0.1430 0.6286
vn -0.8437 0.3347 -0.4197
vn 0.1442 0.1290 -0.9811
vn 0.8437 -0.3347 0.4197
vn -0.1442 -0.1290 0.9811
vn -0.8339 0.4758 0.2798
vn -0.2723 0.6438 -0.7151
vn 0.7645 0.1430 -0.6286
vn 0.7803 0.3712 0.5033
vn 0.1698 0.4983 0.8502
vn -0.2565 0.8721 0.4167
vn 0.0906 0.9760 -0.1981
vn 0.7314 0.6664 -0.1446
g tree.000_Circle.000_bark
usemtl bark
s off
f 188//246 187//246 189//246
f 191//247 192//247 190//247
f 189//248 187//248 190//248 192//248
f 188//249 189//249 192//249 191//249
f 187//250 188//250 191//250 190//250
g tree.000_Circle.000_laeves
usemtl laeves
f 175//251 176//251 177//251
f 176//252 175//252 180//252
f 175//253 177//253 178//253
f 175//254 178//254 179//254
f 175//255 179//255 180//255
f 176//256 180//256 185//256
f 177//257 176//257 181//257
f 178//258 177//258 182//258
f 179//259 178//259 183//259
f 180//260 179//260 184//260
f 176//261 185//261 181//261
f 177//262 181//262 182//262
f 178//263 182//263 183//263
f 179//264 183//264 184//264
f 180//265 184//265 185//265
f 181//266 185//266 186//266
f 182//267 181//267 186//267
f 183//268 182//268 186//268
f 184//269 183//269 186//269
f 185//270 184//270 186//270
